<?xml version="1.0" encoding="UTF-8"?>
<svg xmlns="http://www.w3.org/2000/svg" xmlns:xlink="http://www.w3.org/1999/xlink" width="16px" height="16px" viewBox="0 0 16 16" version="1.1">
<g id="surface1">
<path style=" stroke:none;fill-rule:nonzero;fill:rgb(29.411766%,29.411766%,29.411766%);fill-opacity:1;" d="M 8 3.375 C 5.445312 3.375 3.371094 5.445312 3.371094 8 C 3.371094 10.554688 5.445312 12.628906 8 12.628906 C 10.554688 12.628906 12.628906 10.554688 12.628906 8 C 12.628906 5.445312 10.554688 3.375 8 3.375 Z M 8 3.375 "/>
<path style=" stroke:none;fill-rule:nonzero;fill:rgb(29.411766%,29.411766%,29.411766%);fill-opacity:1;" d="M 8 1.925781 C 8.53125 1.925781 8.964844 1.496094 8.964844 0.964844 C 8.964844 0.429688 8.53125 0 8 0 C 7.46875 0 7.035156 0.429688 7.035156 0.964844 C 7.035156 1.496094 7.46875 1.925781 8 1.925781 Z M 8 1.925781 "/>
<path style=" stroke:none;fill-rule:nonzero;fill:rgb(29.411766%,29.411766%,29.411766%);fill-opacity:1;" d="M 8 14.074219 C 7.46875 14.074219 7.035156 14.503906 7.035156 15.035156 C 7.035156 15.570312 7.46875 16 8 16 C 8.53125 16 8.964844 15.566406 8.964844 15.035156 C 8.964844 14.503906 8.53125 14.074219 8 14.074219 Z M 8 14.074219 "/>
<path style=" stroke:none;fill-rule:nonzero;fill:rgb(29.411766%,29.411766%,29.411766%);fill-opacity:1;" d="M 3.707031 3.707031 C 4.082031 3.328125 4.082031 2.71875 3.707031 2.34375 C 3.328125 1.964844 2.71875 1.964844 2.34375 2.34375 C 1.96875 2.71875 1.96875 3.328125 2.34375 3.707031 C 2.71875 4.082031 3.328125 4.082031 3.707031 3.707031 Z M 3.707031 3.707031 "/>
<path style=" stroke:none;fill-rule:nonzero;fill:rgb(29.411766%,29.411766%,29.411766%);fill-opacity:1;" d="M 12.292969 12.292969 C 11.917969 12.671875 11.917969 13.28125 12.292969 13.65625 C 12.671875 14.035156 13.28125 14.035156 13.65625 13.65625 C 14.03125 13.28125 14.035156 12.671875 13.65625 12.292969 C 13.28125 11.917969 12.671875 11.917969 12.292969 12.292969 Z M 12.292969 12.292969 "/>
<path style=" stroke:none;fill-rule:nonzero;fill:rgb(29.411766%,29.411766%,29.411766%);fill-opacity:1;" d="M 0.964844 7.039062 C 0.429688 7.039062 0 7.46875 0 8 C 0 8.53125 0.429688 8.964844 0.964844 8.964844 C 1.496094 8.964844 1.925781 8.53125 1.925781 8 C 1.925781 7.46875 1.496094 7.039062 0.964844 7.039062 Z M 0.964844 7.039062 "/>
<path style=" stroke:none;fill-rule:nonzero;fill:rgb(29.411766%,29.411766%,29.411766%);fill-opacity:1;" d="M 15.035156 7.039062 C 14.503906 7.039062 14.074219 7.46875 14.074219 8 C 14.074219 8.53125 14.503906 8.964844 15.035156 8.964844 C 15.570312 8.964844 16 8.53125 16 8 C 16 7.46875 15.570312 7.039062 15.035156 7.039062 Z M 15.035156 7.039062 "/>
<path style=" stroke:none;fill-rule:nonzero;fill:rgb(29.411766%,29.411766%,29.411766%);fill-opacity:1;" d="M 2.34375 12.292969 C 1.964844 12.671875 1.964844 13.28125 2.34375 13.65625 C 2.71875 14.035156 3.328125 14.035156 3.707031 13.65625 C 4.082031 13.28125 4.082031 12.671875 3.707031 12.296875 C 3.328125 11.917969 2.71875 11.917969 2.34375 12.292969 Z M 2.34375 12.292969 "/>
<path style=" stroke:none;fill-rule:nonzero;fill:rgb(29.411766%,29.411766%,29.411766%);fill-opacity:1;" d="M 12.296875 2.34375 C 11.917969 2.71875 11.917969 3.328125 12.292969 3.707031 C 12.671875 4.082031 13.28125 4.082031 13.65625 3.707031 C 14.035156 3.328125 14.035156 2.71875 13.65625 2.34375 C 13.28125 1.96875 12.671875 1.96875 12.296875 2.34375 Z M 12.296875 2.34375 "/>
</g>
</svg>
