<?xml version="1.0" encoding="UTF-8"?>
<svg xmlns="http://www.w3.org/2000/svg" xmlns:xlink="http://www.w3.org/1999/xlink" width="16px" height="16px" viewBox="0 0 16 16" version="1.1">
<g id="surface1">
<path style=" stroke:none;fill-rule:nonzero;fill:rgb(29.411766%,29.411766%,29.411766%);fill-opacity:1;" d="M 3.148438 8.457031 L 4.207031 7.898438 L 5.273438 8.457031 L 5.070312 7.273438 L 5.929688 6.433594 L 4.742188 6.261719 L 4.207031 5.183594 L 3.679688 6.261719 L 2.488281 6.433594 L 3.347656 7.273438 Z M 3.148438 8.457031 "/>
<path style=" stroke:none;fill-rule:nonzero;fill:rgb(29.411766%,29.411766%,29.411766%);fill-opacity:1;" d="M 4.914062 2.5625 L 5.746094 2.125 L 6.578125 2.5625 L 6.417969 1.636719 L 7.09375 0.980469 L 6.160156 0.84375 L 5.746094 0 L 5.328125 0.84375 L 4.398438 0.980469 L 5.070312 1.636719 Z M 4.914062 2.5625 "/>
<path style=" stroke:none;fill-rule:nonzero;fill:rgb(29.411766%,29.411766%,29.411766%);fill-opacity:1;" d="M 0.679688 3.765625 L 1.355469 3.410156 L 2.03125 3.765625 L 1.902344 3.015625 L 2.449219 2.480469 L 1.691406 2.371094 L 1.355469 1.683594 L 1.015625 2.371094 L 0.261719 2.480469 L 0.808594 3.015625 Z M 0.679688 3.765625 "/>
<path style=" stroke:none;fill-rule:nonzero;fill:rgb(29.411766%,29.411766%,29.411766%);fill-opacity:1;" d="M 10.339844 0.753906 C 10.851562 1.753906 11.148438 2.886719 11.148438 4.089844 C 11.148438 8.132812 7.875 11.410156 3.828125 11.410156 C 2.625 11.410156 1.492188 11.113281 0.492188 10.597656 C 1.511719 13.730469 4.449219 16 7.921875 16 C 12.238281 16 15.738281 12.5 15.738281 8.183594 C 15.738281 4.710938 13.472656 1.769531 10.339844 0.753906 Z M 10.339844 0.753906 "/>
</g>
</svg>
